<?xml version="1.0" encoding="utf-8"?>
<!-- Generator: Adobe Illustrator 27.3.1, SVG Export Plug-In . SVG Version: 6.00 Build 0)  -->
<svg version="1.1" id="Layer_1" xmlns="http://www.w3.org/2000/svg" xmlns:xlink="http://www.w3.org/1999/xlink" x="0px" y="0px"
	 viewBox="0 0 275.64 19.9" style="enable-background:new 0 0 275.64 19.9;" xml:space="preserve">
<style type="text/css">
	.st0{fill:#302C86;}
</style>
<g>
	<path class="st0" d="M4.93,0.82H7.6c3.23,0,4.25,2.09,4.25,4.04c0,2.76-1.7,4.38-5.19,4.38H4.93V0.82z M7.16,19.5v-0.61H4.93V9.69
		h0.12l7.46,9.8h4.65v-0.61h-1.44L8.74,9.69c4.23-0.25,6.45-2.12,6.45-4.83c0-2.43-1.73-4.66-6.65-4.66H0v0.61h1.76v18.06H0v0.61
		H7.16z"/>
	<path class="st0" d="M31.09,2.98h0.06l2.79,8.16h-5.78L31.09,2.98z M28.22,19.5v-0.61h-2.82l2.55-7.13h6.18l2.4,7.13h-2.17v0.61
		h6.51v-0.61h-1.17L33.27,0h-1.88l-6.8,18.88h-1.7v0.61H28.22z"/>
	<path class="st0" d="M53.49,18.88h4.33c1.93,0,2.49-0.34,4.24-7.14h0.66v7.75H48.55v-0.61h1.77V0.82h-1.77V0.21h7.86v0.61h-2.93
		V18.88z"/>
	<path class="st0" d="M76.9,0.82h3.03c3.05,0,4.32,1.8,4.32,4.42c0,3.34-1.41,4.26-4.58,4.26H76.9V0.82z M79.6,19.5v-0.61h-2.7V10.1
		h3.53c4.81,0,7.15-1.95,7.15-4.87c0-2.92-2.52-5.03-7.18-5.03h-8.43v0.61h1.76v18.06h-1.76v0.61H79.6z"/>
	<polygon class="st0" points="100.38,9.8 100.38,18.88 102.31,18.88 102.31,19.5 95.44,19.5 95.44,18.88 97.21,18.88 97.21,0.82 
		95.44,0.82 95.44,0.2 102.31,0.2 102.31,0.82 100.38,0.82 100.38,9.18 108.13,9.18 108.13,0.82 106.2,0.82 106.2,0.2 113.06,0.2 
		113.06,0.82 111.31,0.82 111.31,18.88 113.06,18.88 113.06,19.5 106.2,19.5 106.2,18.88 108.13,18.88 108.13,9.8 	"/>
	<path class="st0" d="M144.64,18.88h4.33c1.93,0,2.49-0.34,4.24-7.14h0.66v7.75h-14.17v-0.61h1.76V0.82h-1.76V0.21h7.86v0.61h-2.93
		V18.88z"/>
	<path class="st0" d="M169.14,2.98h0.06l2.78,8.16h-5.77L169.14,2.98z M166.27,19.5v-0.61h-2.82l2.55-7.13h6.19l2.4,7.13h-2.17v0.61
		h6.51v-0.61h-1.17L171.3,0h-1.87l-6.8,18.88h-1.69v0.61H166.27z"/>
	<path class="st0" d="M193.28,0.2v0.61h-2.11v14c0,3.39,2.03,4.48,3.87,4.48c2.79,0,4.76-1.78,4.76-4.67V0.82h-2.64V0.2h5.22v0.61
		h-1.76v13.83c0,3.23-2.26,5.26-5.69,5.26c-4.75,0-6.92-1.89-6.92-5.73V0.82h-1.76V0.2H193.28z"/>
	<path class="st0" d="M215.52,0.82h2.68c3.23,0,4.26,2.09,4.26,4.04c0,2.76-1.71,4.38-5.2,4.38h-1.73V0.82z M217.75,19.5v-0.61
		h-2.23V9.69h0.12l7.45,9.8h4.65v-0.61h-1.44l-6.97-9.19c4.22-0.25,6.45-2.12,6.45-4.83c0-2.43-1.73-4.66-6.66-4.66h-8.54v0.61h1.76
		v18.06h-1.76v0.61H217.75z"/>
	<path class="st0" d="M234.57,19.5v-0.61h1.76V0.82h-1.76V0.2h14.89v6.19h-0.65c-1.58-5.21-2.05-5.57-3.49-5.57h-5.81v8.37h2.28
		c1.46,0,2.16-0.87,2.76-3.85h0.65v8.31h-0.65c-0.6-2.98-1.29-3.84-2.76-3.84h-2.28v9.09h5.16c2.09,0,2.7-0.75,4.43-6.52h0.67v7.14
		H234.57z"/>
	<polygon class="st0" points="261.39,1.38 261.34,1.38 261.34,18.88 263.8,18.88 263.8,19.5 258.58,19.5 258.58,18.88 260.52,18.88 
		260.52,0.82 258.58,0.82 258.58,0.21 264.21,0.21 272.82,14.14 272.88,14.14 272.88,0.82 270.54,0.82 270.54,0.21 275.64,0.21 
		275.64,0.82 273.7,0.82 273.7,19.5 272.71,19.5 	"/>
</g>
</svg>
